<?xml version="1.0" encoding="UTF-8"?>
<svg version="1.1" xmlns="http://www.w3.org/2000/svg" width="48" height="44">
<path d="M0 0 C15.84 0 31.68 0 48 0 C48 14.52 48 29.04 48 44 C32.16 44 16.32 44 0 44 C0 29.48 0 14.96 0 0 Z " fill="#477795" transform="translate(0,0)"/>
<path d="M0 0 C15.84 0 31.68 0 48 0 C48 14.52 48 29.04 48 44 C32.16 44 16.32 44 0 44 C0 29.48 0 14.96 0 0 Z M11 8 C11 8.66 11 9.32 11 10 C10.236875 10.2475 9.47375 10.495 8.6875 10.75 C5.67295684 12.1521131 4.63472774 13.13922645 3 16 C2.01865529 19.12246043 1.8225465 22.30565237 1.625 25.5625 C1.57601562 26.30628906 1.52703125 27.05007812 1.4765625 27.81640625 C1.86574866 30.22738641 1.86574866 30.22738641 4.10546875 32.26953125 C7.6286429 34.37582835 9.62535329 34.35659331 13.6875 34.125 C15.78922916 34.01551015 17.8958046 33.95981073 20 34 C20.66 34.66 21.32 35.32 22 36 C23.134375 36.268125 24.26875 36.53625 25.4375 36.8125 C29.66418705 38.22139568 29.87100507 39.32264512 32 43 C34.62694422 43.41780879 34.62694422 43.41780879 37 43 C37.061875 42.443125 37.12375 41.88625 37.1875 41.3125 C38.32504701 38.0748662 40.59171152 36.40828848 43 34 C44.25436187 31.36777038 44.25436187 31.36777038 45 29 C45.495 28.505 45.495 28.505 46 28 C46.94121567 21.97621973 45.90427104 17.21252622 42.6484375 12.0859375 C38.51650067 6.85737289 34.73158296 4.3471667 28.03515625 3.49609375 C26.60756849 3.43358476 25.17883797 3.39333716 23.75 3.375 C23.06446045 3.3639624 22.3789209 3.3529248 21.67260742 3.34155273 C16.90875365 3.47699849 14.30425847 4.5804767 11 8 Z " fill="#EDEDEC" transform="translate(0,0)"/>
<path d="M0 0 C-0.33 1.98 -0.66 3.96 -1 6 C-2.65 5.67 -4.3 5.34 -6 5 C-6.226875 5.78375 -6.45375 6.5675 -6.6875 7.375 C-8 10 -8 10 -10.5625 11.1875 C-11.366875 11.455625 -12.17125 11.72375 -13 12 C-13.33 12.66 -13.66 13.32 -14 14 C-9.38486888 12.68139111 -5.90102388 10.78644563 -2 8 C-1.1875 9.6875 -1.1875 9.6875 -1 12 C-3.0625 14.75 -3.0625 14.75 -6 17 C-9.3125 17.3125 -9.3125 17.3125 -12 17 C-12 18.32 -12 19.64 -12 21 C-11.01 21 -10.02 21 -9 21 C-8.67 20.34 -8.34 19.68 -8 19 C-6.8553125 18.319375 -6.8553125 18.319375 -5.6875 17.625 C-1.86354859 15.33962097 -1.86354859 15.33962097 1 12 C1.46947045 9.11127644 1.68871894 6.28620564 1.82421875 3.36328125 C2 1 2 1 3 0 C7.60717244 -0.80625518 10.0679805 0.44115367 13.8125 2.9375 C17.67241379 5.67241379 17.67241379 5.67241379 19 7 C19.04063832 8.66617115 19.042721 10.33388095 19 12 C19.99 12.33 20.98 12.66 22 13 C22.36690647 20.46043165 22.36690647 20.46043165 20.87109375 22.66015625 C18.32500916 24.48334417 15.92363103 24.956505 12.875 25.625 C9.12903172 26.19026853 9.12903172 26.19026853 6 28 C4.33382885 28.04063832 2.66611905 28.042721 1 28 C0.34 26.68 -0.32 25.36 -1 24 C0.51043192 22.48956808 1.95728392 22.88833111 4.0625 22.8125 C9.36950749 22.28520118 13.50424078 20.06727299 17 16 C17 14.68 17 13.36 17 12 C16.01 12 15.02 12 14 12 C13.731875 12.928125 13.46375 13.85625 13.1875 14.8125 C11.44854881 19.48021108 11.44854881 19.48021108 9 21 C5.3125 21.1875 5.3125 21.1875 2 21 C2.33 19.35 2.66 17.7 3 16 C4.65 15.67 6.3 15.34 8 15 C8.66 12.03 9.32 9.06 10 6 C9.01 5.67 8.02 5.34 7 5 C7 7.64 7 10.28 7 13 C5.576875 13.556875 5.576875 13.556875 4.125 14.125 C0.29805802 16.42116519 0.13290904 17.81695125 -1 22 C-2.171875 23.66796875 -2.171875 23.66796875 -4 25 C-6.84765625 25.36328125 -6.84765625 25.36328125 -10.0625 25.3125 C-11.12597656 25.30863281 -12.18945312 25.30476563 -13.28515625 25.30078125 C-16 25 -16 25 -18 23 C-18.55496485 17.45035148 -17.46966336 12.92799799 -15 8 C-14.34 7.34 -13.68 6.68 -13 6 C-12.01 6 -11.02 6 -10 6 C-9.731875 5.38125 -9.46375 4.7625 -9.1875 4.125 C-6.90158028 0.03440681 -4.32852843 -0.23397451 0 0 Z " fill="#E7E9E8" transform="translate(22,6)"/>
<path d="M0 0 C0.33 0.66 0.66 1.32 1 2 C-0.2065625 3.11375 -0.2065625 3.11375 -1.4375 4.25 C-3.76988591 6.75304829 -4.63534394 7.7180955 -5 11 C-7.25 11.375 -7.25 11.375 -10 11 C-10.639375 10.030625 -11.27875 9.06125 -11.9375 8.0625 C-13.71913146 4.69470526 -13.71913146 4.69470526 -17.25 4.125 C-18.1575 4.08375 -19.065 4.0425 -20 4 C-20 3.67 -20 3.34 -20 3 C-19.154375 2.731875 -18.30875 2.46375 -17.4375 2.1875 C-13.93251879 1.06507956 -13.93251879 1.06507956 -10.5625 -0.75 C-6.21334293 -2.27602002 -4.19328476 -1.7611796 0 0 Z " fill="#56819C" transform="translate(42,32)"/>
<path d="M0 0 C0.99 0.33 1.98 0.66 3 1 C4.06174484 9.37598706 4.06174484 9.37598706 1.546875 13.22265625 C-0.23017802 15.04077562 -1.86424298 16.61884664 -4 18 C-4.99 18 -5.98 18 -7 18 C-7.33 18.99 -7.66 19.98 -8 21 C-9.32 20.67 -10.64 20.34 -12 20 C-11.67 18.35 -11.34 16.7 -11 15 C-10.0925 15.0825 -9.185 15.165 -8.25 15.25 C-4.93540324 15.29139571 -4.93540324 15.29139571 -2.625 13.1875 C-0.701838 11.05279952 -0.701838 11.05279952 -1 8 C-4.67840889 10.27307664 -4.67840889 10.27307664 -8 13 C-9.66617115 13.04063832 -11.33388095 13.042721 -13 13 C-12.67 12.01 -12.34 11.02 -12 10 C-11.195625 9.71125 -10.39125 9.4225 -9.5625 9.125 C-6.76071559 8.22055781 -6.76071559 8.22055781 -5.6875 5.375 C-5.460625 4.59125 -5.23375 3.8075 -5 3 C-3.68 3.33 -2.36 3.66 -1 4 C-0.67 2.68 -0.34 1.36 0 0 Z " fill="#688EA6" transform="translate(21,7)"/>
<path d="M0 0 C7.99551682 -0.61416488 14.64894208 -1.07029044 21.15625 4.1015625 C25.56629604 8.64241499 28.22217808 13.35832896 28.5625 19.75 C28.33919851 23.86306944 26.99186968 26.10162625 24 29 C22.02 28.34 20.04 27.68 18 27 C18 26.67 18 26.34 18 26 C21.465 25.505 21.465 25.505 25 25 C25 21.7 25 18.4 25 15 C24.34 14.67 23.68 14.34 23 14 C22.79375 13.0925 22.5875 12.185 22.375 11.25 C20.44314286 6.68379221 17.4806977 4.928612 13 3 C9.70365533 2.49474052 9.70365533 2.49474052 7 3 C5.41727399 4.58272601 5.65264253 6.38034003 5.4375 8.5625 C5.35371094 9.38878906 5.26992188 10.21507812 5.18359375 11.06640625 C5.12300781 11.70449219 5.06242187 12.34257812 5 13 C4.67 13 4.34 13 4 13 C3.97301811 11.37509046 3.95361243 9.75005367 3.9375 8.125 C3.92589844 7.22007813 3.91429687 6.31515625 3.90234375 5.3828125 C4 3 4 3 5 1 C3.35 1 1.7 1 0 1 C0 0.67 0 0.34 0 0 Z " fill="#4A7896" transform="translate(18,4)"/>
<path d="M0 0 C-0.33 0.66 -0.66 1.32 -1 2 C-2.11375 2.12375 -3.2275 2.2475 -4.375 2.375 C-8.00599185 2.60696312 -8.00599185 2.60696312 -9.625 4.875 C-10.07875 5.57625 -10.5325 6.2775 -11 7 C-11.845625 7.433125 -12.69125 7.86625 -13.5625 8.3125 C-17.0459347 10.72410864 -17.24905167 12.90391818 -18 17 C-18.25144312 20.75073204 -18.25144312 20.75073204 -18 24 C-16.33657163 25.66342837 -14.2174291 25.36048097 -11.9375 25.5625 C-11.01839844 25.64628906 -10.09929688 25.73007812 -9.15234375 25.81640625 C-8.08693359 25.90728516 -8.08693359 25.90728516 -7 26 C-6.67 26.99 -6.34 27.98 -6 29 C-10.76862544 29.33334081 -14.72195437 29.58790099 -19.125 27.5625 C-21.9131875 23.75197708 -21.57053315 20.56426516 -21 16 C-20.21812558 11.66415097 -19.66575491 9.64911104 -16.5 6.5625 C-14 5 -14 5 -12 5 C-11.731875 4.38125 -11.46375 3.7625 -11.1875 3.125 C-8.34525973 -1.96111417 -5.05998111 -0.95471342 0 0 Z " fill="#4F7C99" transform="translate(23,5)"/>
<path d="M0 0 C1.32 0.33 2.64 0.66 4 1 C4 3.89805298 3.42055065 5.55218173 1.43359375 7.66796875 C-2.12446401 10.59936272 -4.80049207 12.38337702 -9.5 12.375 C-10.655 12.25125 -11.81 12.1275 -13 12 C-13 11.67 -13 11.34 -13 11 C-11.39125 10.87625 -11.39125 10.87625 -9.75 10.75 C-5.61973275 9.92394655 -4.44176828 9.3461269 -2 6 C-0.73215876 2.86649283 -0.73215876 2.86649283 0 0 Z " fill="#58839E" transform="translate(36,17)"/>
<path d="M0 0 C-0.6875 1.9375 -0.6875 1.9375 -2 4 C-4.625 4.75 -4.625 4.75 -7 5 C-7.33 5.99 -7.66 6.98 -8 8 C-11 4.25 -11 4.25 -11 2 C-7.17679443 0.57741188 -4.08718695 -0.24042276 0 0 Z " fill="#E9EAEA" transform="translate(41,32)"/>
<path d="M0 0 C0.33 0 0.66 0 1 0 C1.66 2.31 2.32 4.62 3 7 C6.3 7.33 9.6 7.66 13 8 C13.33 8.99 13.66 9.98 14 11 C5.24804568 11.6117871 5.24804568 11.6117871 0.8125 9.4375 C-1 7 -1 7 -0.8125 3.25 C-0.544375 2.1775 -0.27625 1.105 0 0 Z " fill="#7396AB" transform="translate(3,23)"/>
<path d="M0 0 C0.66 0 1.32 0 2 0 C2.12375 1.175625 2.12375 1.175625 2.25 2.375 C2.72806339 5.14749104 2.72806339 5.14749104 5.0625 6.3125 C5.701875 6.539375 6.34125 6.76625 7 7 C5.00045254 7.04254356 2.99958364 7.04080783 1 7 C0.67 6.67 0.34 6.34 0 6 C-2.01594582 5.76572222 -4.038474 5.58663876 -6.0625 5.4375 C-7.16722656 5.35371094 -8.27195312 5.26992188 -9.41015625 5.18359375 C-10.26480469 5.12300781 -11.11945312 5.06242187 -12 5 C-12 4.67 -12 4.34 -12 4 C-10.95199219 3.81824219 -10.95199219 3.81824219 -9.8828125 3.6328125 C-8.51769531 3.38144531 -8.51769531 3.38144531 -7.125 3.125 C-5.76761719 2.88136719 -5.76761719 2.88136719 -4.3828125 2.6328125 C-1.83494012 2.16955297 -1.83494012 2.16955297 0 0 Z " fill="#457594" transform="translate(20,28)"/>
<path d="M0 0 C2.31 0.33 4.62 0.66 7 1 C7 1.66 7 2.32 7 3 C6.01 3 5.02 3 4 3 C3.67 3.99 3.34 4.98 3 6 C1.68 5.67 0.36 5.34 -1 5 C-0.67 3.35 -0.34 1.7 0 0 Z " fill="#55809C" transform="translate(10,22)"/>
<path d="M0 0 C0.99 0.33 1.98 0.66 3 1 C1.77443263 5.37702633 0.46939453 9.69677317 -1 14 C-1.33 14 -1.66 14 -2 14 C-2.21192221 8.80790596 -1.5912689 4.873261 0 0 Z " fill="#59839E" transform="translate(4,14)"/>
<path d="M0 0 C1.32 0.66 2.64 1.32 4 2 C3.38722388 4.96175123 2.74627478 6.38058783 1 9 C-1.14809171 5.77786243 -1.29386153 4.72224599 -1 1 C-0.67 0.67 -0.34 0.34 0 0 Z " fill="#59839E" transform="translate(29,10)"/>
<path d="M0 0 C3.63 0 7.26 0 11 0 C10.195625 0.474375 9.39125 0.94875 8.5625 1.4375 C5.00982428 4.99017572 5.11421377 8.14072325 5 13 C4.67 13 4.34 13 4 13 C3.97301811 11.37509046 3.95361243 9.75005367 3.9375 8.125 C3.92589844 7.22007813 3.91429687 6.31515625 3.90234375 5.3828125 C4 3 4 3 5 1 C3.35 1 1.7 1 0 1 C0 0.67 0 0.34 0 0 Z " fill="#3A6E8F" transform="translate(18,4)"/>
<path d="M0 0 C0.33 0 0.66 0 1 0 C1.49230769 7.26153846 1.49230769 7.26153846 -1 11 C-1.66 11.66 -2.32 12.32 -3 13 C-4.98 12.34 -6.96 11.68 -9 11 C-9 10.67 -9 10.34 -9 10 C-5.535 9.505 -5.535 9.505 -2 9 C-1.34 6.03 -0.68 3.06 0 0 Z " fill="#3F7191" transform="translate(45,20)"/>
<path d="M0 0 C0.66 0.66 1.32 1.32 2 2 C0.37660195 3.70884005 -1.29319053 5.37446717 -3 7 C-3.66 7 -4.32 7 -5 7 C-5 7.99 -5 8.98 -5 10 C-5.66 9.67 -6.32 9.34 -7 9 C-6.75 7.125 -6.75 7.125 -6 5 C-4.0625 3.9375 -4.0625 3.9375 -2 3 C-1.34 2.01 -0.68 1.02 0 0 Z " fill="#4B7997" transform="translate(41,32)"/>
<path d="M0 0 C1.89213369 2.38573379 3.02391783 4.07175348 4 7 C3.72428861 9.00875442 3.39764263 11.01178687 3 13 C2.67 13 2.34 13 2 13 C1.87625 11.865625 1.7525 10.73125 1.625 9.5625 C1.41875 8.386875 1.2125 7.21125 1 6 C0.34 5.67 -0.32 5.34 -1 5 C-0.67 3.35 -0.34 1.7 0 0 Z " fill="#5C86A0" transform="translate(42,13)"/>
<path d="M0 0 C-0.66 1.32 -1.32 2.64 -2 4 C-3.65 4 -5.3 4 -7 4 C-6.67 3.01 -6.34 2.02 -6 1 C-3.90006779 0.25486277 -2.22568901 0 0 0 Z " fill="#6C91A8" transform="translate(15,16)"/>
<path d="M0 0 C1.32 0.66 2.64 1.32 4 2 C3.01 2.66 2.02 3.32 1 4 C0.01 5.485 0.01 5.485 -1 7 C-1.66 5.68 -2.32 4.36 -3 3 C-2.01 2.01 -1.02 1.02 0 0 Z " fill="#DDE2E3" transform="translate(15,7)"/>
</svg>
